<svg xmlns="http://www.w3.org/2000/svg" viewBox="0 0 64 64">
  <!-- lucide:shopping-bag, generated from internal/catimport/icons.go (ut-docs#2506). Licence: internal/catimport/iconsrc/lucide/LICENSE -->
  <rect width="64" height="64" fill="#E2E8F0"/>
  <g transform="translate(12 12) scale(1.6667)" fill="none" stroke="#334155" stroke-width="2" stroke-linecap="round" stroke-linejoin="round">
    <path d="M16 10a4 4 0 0 1-8 0"/>
    <path d="M3.103 6.034h17.794"/>
    <path d="M3.4 5.467a2 2 0 0 0-.4 1.2V20a2 2 0 0 0 2 2h14a2 2 0 0 0 2-2V6.667a2 2 0 0 0-.4-1.2l-2-2.667A2 2 0 0 0 17 2H7a2 2 0 0 0-1.6.8z"/>
  </g>
</svg>
