<svg xmlns="http://www.w3.org/2000/svg" viewBox="0 0 64 64">
  <!-- tabler:bowl-spoon, generated from internal/catimport/icons.go (ut-docs#2506). Licence: internal/catimport/iconsrc/tabler/LICENSE -->
  <rect width="64" height="64" fill="#FFE4E6"/>
  <g transform="translate(12 12) scale(1.6667)" fill="none" stroke="#9F1239" stroke-width="2" stroke-linecap="round" stroke-linejoin="round">
    <path d="M4 11h16a1 1 0 0 1 1 1v.5c0 1.5 -2.517 5.573 -4 6.5v1a1 1 0 0 1 -1 1h-8a1 1 0 0 1 -1 -1v-1c-1.687 -1.054 -4 -5 -4 -6.5v-.5a1 1 0 0 1 1 -1"/>
    <path d="M8 7c1.657 0 3 -.895 3 -2s-1.343 -2 -3 -2s-3 .895 -3 2s1.343 2 3 2"/>
    <path d="M11 5h9"/>
  </g>
</svg>
